<svg xmlns="http://www.w3.org/2000/svg" xmlns:xlink="http://www.w3.org/1999/xlink" viewBox="0 0 85 83">
  <defs>
    <style>
      .cls-1 {
        clip-path: url(#clip-Heart);
      }

      .cls-2 {
        fill: #ff68c4;
      }

      .cls-3 {
        fill: #ff6868;
      }

      .cls-4 {
        fill: #fff;
      }
    </style>
    <clipPath id="clip-Heart">
      <rect width="85" height="83"/>
    </clipPath>
  </defs>
  <g id="Heart" class="cls-1">
    <rect class="cls-4" width="85" height="83"/>
    <g id="Heart-2" data-name="Heart" transform="translate(-542 -301)">
      <g id="heart-3" data-name="heart" transform="translate(542.502 1079.293)">
        <path id="Path_142" data-name="Path 142" class="cls-2" d="M62.736-777.587a24.2,24.2,0,0,0-8.243,2.523,34.94,34.94,0,0,0-10.433,8.316c-.571.654-2.377,2.824-4,4.807s-2.969,3.592-2.979,3.571a11.952,11.952,0,0,1-.145-1.215c-.322-3.249-2.409-6.966-5.419-9.634a19.744,19.744,0,0,0-9.271-4.557,25.34,25.34,0,0,0-6.333.01C8.472-772.448,2.959-768.4,1.122-762.929a16.913,16.913,0,0,0-.208,8.793,40.415,40.415,0,0,0,6.935,14.628c2.159,3.021,3.945,5.139,9.458,11.222,7.444,8.2,9.333,10.631,11.16,14.275,1.422,2.865,2.107,4.744,4.724,13.091a28.349,28.349,0,0,1,.841,2.99,1.232,1.232,0,0,0,.467.986c.592.228.882-.156.685-.914a13.9,13.9,0,0,1,.467-5.336c.332-1.35,1.557-5.128,2.191-6.769a41.249,41.249,0,0,1,10.08-14.711c3.281-2.99,5.751-4.713,15.23-10.568,10.911-6.738,15.946-12.022,18.323-19.237a17.655,17.655,0,0,0,.311-11.347,13.326,13.326,0,0,0-1.744-3.582,19.414,19.414,0,0,0-11.908-7.932,14.553,14.553,0,0,0-3.063-.26C63.961-777.618,62.913-777.608,62.736-777.587Z" transform="translate(0 0)"/>
      </g>
      <g id="heart-4" data-name="heart" transform="translate(547.502 1084.942)">
        <path id="Path_142-2" data-name="Path 142" class="cls-3" d="M54.519-777.59a21,21,0,0,0-7.156,2.19,30.332,30.332,0,0,0-9.057,7.219c-.5.568-2.064,2.451-3.47,4.173s-2.577,3.118-2.586,3.1a10.377,10.377,0,0,1-.126-1.055,13.841,13.841,0,0,0-4.7-8.363,17.141,17.141,0,0,0-8.048-3.956,22,22,0,0,0-5.5.009c-6.462,1.144-11.247,4.659-12.842,9.409a14.682,14.682,0,0,0-.18,7.633,35.084,35.084,0,0,0,6.02,12.7,100.047,100.047,0,0,0,8.21,9.742c6.462,7.12,8.1,9.228,9.688,12.392,1.235,2.487,1.829,4.119,4.1,11.364a24.608,24.608,0,0,1,.73,2.6,1.069,1.069,0,0,0,.406.856c.514.2.766-.135.595-.793a12.067,12.067,0,0,1,.406-4.632c.288-1.172,1.352-4.452,1.9-5.876a35.807,35.807,0,0,1,8.751-12.77c2.848-2.6,4.993-4.092,13.221-9.174,9.472-5.849,13.843-10.436,15.906-16.7a15.326,15.326,0,0,0,.27-9.85,11.57,11.57,0,0,0-1.514-3.109,16.854,16.854,0,0,0-10.337-6.885,12.637,12.637,0,0,0-2.659-.225C55.583-777.617,54.672-777.608,54.519-777.59Z" transform="translate(0 0)"/>
      </g>
    </g>
  </g>
</svg>
